#!OML:ASF H:\Pregnant\Project 1\Capture day 1\Session 1\femalepreg.ASF
:FULLY-SPECIFIED
:DEGREES
545
root 8.52953 20.0365 9.33349 -158.75 -6.9194 -179.986
lowerback -11.6036 1.67793 4.98851
upperback -9.75547 0.00980953 6.59067
thorax -3.73092 -0.87065 4.18953
lowerneck -23.542 1.80446 1.82739
upperneck 40.8323 0.10555 -4.06463
head 19.9602 -1.50633 -2.78484
rclavicle 5.1684e-015 -1.90833e-014
rhumerus -39.9698 -16.0806 -58.8788
rradius 30.6259
rwrist -5.68556
rhand -16.4725 -19.776
rfingers 7.12502
rthumb 9.74428 -49.5306
lclavicle 5.1684e-015 -1.90833e-014
lhumerus -45.7353 -1.34536 81.4293
lradius 34.9724
lwrist 39.8952
lhand -23.1208 -2.19151
lfingers 7.12502
lthumb 3.32647 27.7623
rfemur -46.5798 12.5728 20.6991
rtibia 44.0536
rfoot -13.9358 -13.0421
rtoes -11.3278
lfemur -48.4726 -9.99812 -16.8315
ltibia 72.21
lfoot -1.69846 -11.8985
ltoes -27.1913
546
root 8.541 20.0585 9.29763 -158.784 -6.85022 -179.951
lowerback -11.5071 1.73337 4.79815
upperback -9.79155 0.109234 6.59994
thorax -3.82758 -0.81186 4.31711
lowerneck -23.7153 1.78751 1.85546
upperneck 40.6521 0.144921 -4.04419
head 19.8941 -1.45797 -2.75323
rclavicle 1.64991e-014 -7.95139e-014
rhumerus -39.9637 -15.8913 -58.8711
rradius 30.4512
rwrist -5.45442
rhand -16.5334 -19.8664
rfingers 7.12502
rthumb 9.68554 -49.6237
lclavicle 1.64991e-014 -7.95139e-014
lhumerus -45.5764 -1.57457 81.9707
lradius 35.0001
lwrist 40.0706
lhand -23.0796 -2.22378
lfingers 7.12502
lthumb 3.36619 27.7294
rfemur -46.1054 12.7664 20.7654
rtibia 43.5067
rfoot -13.7935 -13.0869
rtoes -11.3156
lfemur -49.5129 -9.71668 -16.9982
ltibia 73.0813
lfoot -2.40477 -11.3332
ltoes -28.0554
547
root 8.55138 20.0787 9.26134 -158.828 -6.75606 -179.916
lowerback -11.4092 1.78689 4.61252
upperback -9.80863 0.208741 6.60083
thorax -3.90524 -0.751105 4.43197
lowerneck -23.9067 1.77309 1.88706
upperneck 40.4489 0.190488 -4.01693
head 19.8192 -1.40322 -2.71563
rclavicle -1.51076e-014 1.20861e-013
rhumerus -39.9393 -15.723 -58.8959
rradius 30.3038
rwrist -5.23318
rhand -16.6181 -19.9336
rfingers 7.12502
rthumb 9.60381 -49.6947
lclavicle -1.51076e-014 1.20861e-013
lhumerus -45.4131 -1.81234 82.4923
lradius 35.042
lwrist 40.2208
lhand -22.9725 -2.21696
lfingers 7.12502
lthumb 3.46964 27.7345
rfemur -45.637 12.9592 20.8304
rtibia 42.9875
rfoot -13.661 -13.1174
rtoes -11.3539
lfemur -50.4745 -9.45354 -17.168
ltibia 73.76
lfoot -3.07396 -10.6666
ltoes -28.9758
548
root 8.56062 20.0978 9.22372 -158.874 -6.64664 -179.884
lowerback -11.3215 1.83753 4.43364
upperback -9.81514 0.304479 6.59129
thorax -3.96628 -0.691464 4.53079
lowerneck -24.1065 1.76234 1.91613
upperneck 40.2291 0.242036 -3.97907
head 19.7368 -1.34359 -2.66977
rclavicle 1.53064e-014 4.45278e-014
rhumerus -39.8909 -15.6409 -58.9131
rradius 30.1332
rwrist -4.93566
rhand -16.6944 -20.112
rfingers 7.12502
rthumb 9.53021 -49.8765
lclavicle 1.53064e-014 4.45278e-014
lhumerus -45.2508 -2.06038 82.992
lradius 35.0839
lwrist 40.3311
lhand -22.8034 -2.17757
lfingers 7.12502
lthumb 3.63298 27.7712
rfemur -45.1761 13.1417 20.8922
rtibia 42.4984
rfoot -13.5505 -13.1318
rtoes -11.3838
lfemur -51.3582 -9.2204 -17.3341
ltibia 74.2446
lfoot -3.70047 -9.91735
ltoes -29.889
549
root 8.56871 20.1154 9.18507 -158.925 -6.51885 -179.857
lowerback -11.231 1.88708 4.26614
upperback -9.82017 0.399484 6.56552
thorax -4.02742 -0.632398 4.60544
lowerneck -24.2988 1.75763 1.95093
upperneck 39.9971 0.296255 -3.93126
head 19.6454 -1.28019 -2.61866
rclavicle -2.48481e-014 8.26944e-014
rhumerus -39.8212 -15.6649 -58.9149
rradius 29.9084
rwrist -4.55804
rhand -16.7703 -20.3302
rfingers 7.12502
rthumb 9.45698 -50.098
lclavicle -2.48481e-014 8.26944e-014
lhumerus -45.1133 -2.32837 83.4633
lradius 35.1387
lwrist 40.4036
lhand -22.5888 -2.09726
lfingers 7.12502
lthumb 3.84024 27.8479
rfemur -44.7247 13.3171 20.95
rtibia 42.0423
rfoot -13.4586 -13.1362
rtoes -11.4502
lfemur -52.1635 -9.0136 -17.4939
ltibia 74.5401
lfoot -4.28833 -9.10003
ltoes -30.7834
550
root 8.57611 20.1312 9.14612 -158.972 -6.38307 -179.835
lowerback -11.1396 1.93147 4.10569
upperback -9.8282 0.487922 6.52543
thorax -4.09211 -0.576949 4.6601
lowerneck -24.4901 1.75718 1.99624
upperneck 39.7576 0.350839 -3.88292
head 19.5499 -1.21491 -2.569
rclavicle -1.19271e-015 4.77083e-014
rhumerus -39.7426 -15.7642 -58.9192
rradius 29.6505
rwrist -4.178
rhand -16.8999 -20.538
rfingers 7.12502
rthumb 9.33197 -50.3115
lclavicle -1.19271e-015 4.77083e-014
lhumerus -45.0005 -2.61154 83.9033
lradius 35.2057
lwrist 40.4352
lhand -22.3039 -2.02667
lfingers 7.12502
lthumb 4.11536 27.9133
rfemur -44.2975 13.4826 21.0031
rtibia 41.6256
rfoot -13.3858 -13.1362
rtoes -11.5317
lfemur -52.9084 -8.83944 -17.6356
ltibia 74.6554
lfoot -4.84084 -8.23998
ltoes -31.6309
551
root 8.58294 20.1454 9.10715 -159.009 -6.24268 -179.82
lowerback -11.0568 1.96958 3.95184
upperback -9.84495 0.566545 6.46847
thorax -4.1609 -0.527376 4.69227
lowerneck -24.6274 1.76371 2.05539
upperneck 39.4906 0.406555 -3.83023
head 19.4233 -1.14677 -2.51727
rclavicle 3.51849e-014 -8.90555e-014
rhumerus -39.6778 -15.9003 -58.9445
rradius 29.3969
rwrist -3.84007
rhand -17.0652 -20.7251
rfingers 7.12502
rthumb 9.17242 -50.5056
lclavicle 3.51849e-014 -8.90555e-014
lhumerus -44.9313 -2.91993 84.3125
lradius 35.3014
lwrist 40.4385
lhand -21.9989 -1.94725
lfingers 7.12502
lthumb 4.40987 27.9868
rfemur -43.9039 13.6358 21.0494
rtibia 41.2528
rfoot -13.334 -13.1325
rtoes -11.6142
lfemur -53.5998 -8.7018 -17.7538
ltibia 74.5961
lfoot -5.36264 -7.34784
ltoes -32.4393
552
root 8.58973 20.1575 9.06899 -159.028 -6.10631 -179.81
lowerback -10.9825 1.99699 3.80348
upperback -9.86499 0.630297 6.39771
thorax -4.22766 -0.485598 4.70531
lowerneck -24.7458 1.78143 2.13021
upperneck 39.1985 0.471803 -3.77162
head 19.2782 -1.07068 -2.46179
rclavicle -1.05356e-014 -2.54444e-014
rhumerus -39.6146 -16.036 -59.0223
rradius 29.1774
rwrist -3.59917
rhand -17.2705 -20.8481
rfingers 7.12502
rthumb 8.97434 -50.6373
lclavicle -1.05356e-014 -2.54444e-014
lhumerus -44.8836 -3.22573 84.6752
lradius 35.4225
lwrist 40.3977
lhand -21.6662 -1.8963
lfingers 7.12502
lthumb 4.73112 28.0309
rfemur -43.5584 13.7816 21.0898
rtibia 40.9269
rfoot -13.3009 -13.1332
rtoes -11.6829
lfemur -54.2549 -8.60081 -17.836
ltibia 74.3711
lfoot -5.85622 -6.43887
ltoes -33.1899
553
root 8.59648 20.168 9.03209 -159.03 -5.97299 -179.798
lowerback -10.9195 2.01474 3.66677
upperback -9.87963 0.680611 6.31475
thorax -4.2813 -0.450668 4.69727
lowerneck -24.8594 1.80423 2.21017
upperneck 38.8789 0.540844 -3.70149
head 19.1169 -0.989014 -2.39941
rclavicle -1.03368e-014 -6.36111e-014
rhumerus -39.5652 -16.1046 -59.1945
rradius 29.0596
rwrist -3.53947
rhand -17.5358 -20.8677
rfingers 7.12502
rthumb 8.71832 -50.6676
lclavicle -1.03368e-014 -6.36111e-014
lhumerus -44.8361 -3.51718 84.9848
lradius 35.5633
lwrist 40.3006
lhand -21.308 -1.89161
lfingers 7.12502
lthumb 5.07691 28.0276
rfemur -43.2636 13.9245 21.1266
rtibia 40.6445
rfoot -13.2861 -13.1299
rtoes -11.6954
lfemur -54.873 -8.53387 -17.874
ltibia 73.9831
lfoot -6.31881 -5.5257
ltoes -33.8754
554
root 8.60301 20.1766 8.99554 -159.027 -5.83124 -179.786
lowerback -10.8587 2.02567 3.54187
upperback -9.88014 0.723827 6.21674
thorax -4.31748 -0.418548 4.66517
lowerneck -24.9936 1.83388 2.30177
upperneck 38.5435 0.615265 -3.62591
head 18.954 -0.901081 -2.33519
rclavicle 1.82882e-014 -4.29375e-014
rhumerus -39.4932 -16.1929 -59.4186
rradius 28.9772
rwrist -3.51542
rhand -17.7683 -20.9237
rfingers 7.12502
rthumb 8.49393 -50.7329
lclavicle 1.82882e-014 -4.29375e-014
lhumerus -44.7767 -3.80799 85.249
lradius 35.7184
lwrist 40.1551
lhand -20.966 -1.94338
lfingers 7.12502
lthumb 5.40716 27.9676
rfemur -42.9982 14.0715 21.1605
rtibia 40.4019
rfoot -13.2895 -13.1264
rtoes -11.6805
lfemur -55.4307 -8.4926 -17.8727
ltibia 73.4357
lfoot -6.75613 -4.62027
ltoes -34.4785
555
root 8.60888 20.1836 8.95929 -159.03 -5.66955 -179.767
lowerback -10.7959 2.03452 3.43912
upperback -9.86328 0.765891 6.10392
thorax -4.33501 -0.386818 4.60382
lowerneck -25.1528 1.87258 2.40978
upperneck 38.2021 0.695163 -3.54833
head 18.7969 -0.807398 -2.27249
rclavicle 3.89618e-014 -6.20208e-014
rhumerus -39.4266 -16.2266 -59.7313
rradius 28.9904
rwrist -3.61306
rhand -17.9884 -20.9444
rfingers 7.12502
rthumb 8.28154 -50.7621
lclavicle 3.89618e-014 -6.20208e-014
lhumerus -44.7044 -4.07298 85.4545
lradius 35.8817
lwrist 39.9431
lhand -20.655 -2.02769
lfingers 7.12502
lthumb 5.70746 27.8754
rfemur -42.7501 14.2292 21.1968
rtibia 40.1921
rfoot -13.3038 -13.1129
rtoes -11.6546
lfemur -55.9097 -8.469 -17.8314
ltibia 72.7306
lfoot -7.17175 -3.73438
ltoes -35.0103
